<svg width="154" height="57" fill="none" xmlns="http://www.w3.org/2000/svg"><path d="M22.7 20.71S8.08 29.161 10.684 40.326C13.726 53.372 50.535 57 50.535 57s-26.894-6.571-30.82-19.714C16.671 27.478 22.7 20.71 22.7 20.71z" fill="#fff"/><path d="M4.787 0s17.276 5.002 22.33 13.732c3.779 5.688-1.915 12.358-1.915 12.358s11.779-6.18 9.618-13.046C32.662 6.179 14.306 1.078 4.787 0z" fill="#fff"/><path d="M26.97 55.5c-14.303 0-25.94-11.628-25.94-25.92 0-10.613 6.42-19.755 15.583-23.757a52.47 52.47 0 00-1.147-.608C6.335 9.537 0 18.832 0 29.581c0 14.858 12.097 26.948 26.97 26.948 2.842 0 5.585-.442 8.162-1.261a116 116 0 01-2.038-.501 26.067 26.067 0 01-6.125.732zm-.001-51.836c14.302 0 25.938 11.627 25.938 25.919 0 9.774-5.445 18.297-13.46 22.711.404.173.807.338 1.203.499 7.946-4.694 13.286-13.34 13.286-23.212 0-14.859-12.098-26.95-26.97-26.95-1.814 0-3.585.184-5.299.528.658.233 1.307.475 1.947.724 1.1-.143 2.217-.219 3.355-.219zM72.98 9.789v17.297h-1.442V11.048H66.03l-.208 6.581c-.107 3.525-.433 5.982-.983 7.372-.55 1.39-1.556 2.085-3.022 2.085h-.45V25.85h.39c.936 0 1.587-.561 1.949-1.686.362-1.124.592-3.301.69-6.533l.256-7.84h8.328v-.002zm13.585 11.084c0 2.13-.471 3.74-1.411 4.828-.94 1.089-2.25 1.634-3.927 1.634-1.645 0-2.925-.547-3.842-1.64-.916-1.092-1.375-2.7-1.375-4.822v-4.847c0-2.123.457-3.735 1.375-4.835.917-1.1 2.197-1.652 3.842-1.652 1.67 0 2.976.553 3.92 1.658.945 1.105 1.418 2.714 1.418 4.829v4.847zm-1.442-4.881c0-1.735-.332-3.029-.996-3.88-.665-.85-1.631-1.277-2.902-1.277-1.23 0-2.164.426-2.802 1.277-.64.851-.959 2.145-.959 3.88v4.883c0 1.75.32 3.052.959 3.909.64.855 1.574 1.284 2.802 1.284 1.27 0 2.237-.427 2.902-1.278.664-.851.996-2.157.996-3.915v-4.883zM91.4 9.789l4.641 15.194h.049l4.64-15.193h1.856v17.297h-1.429v-7.591l.147-7.093-.036-.012-4.728 14.696h-.953L90.873 12.39l-.037.012.147 7.092v7.592h-1.417V9.789H91.4zm22.873 1.259h-6.999v6.25h3.457c1.506 0 2.654.434 3.445 1.301.79.867 1.186 2.058 1.186 3.57 0 1.52-.396 2.72-1.192 3.599-.793.88-1.941 1.318-3.439 1.318h-4.911V9.789h8.453v1.26zm-6.999 7.497v7.305h3.457c1.092 0 1.895-.342 2.412-1.028.518-.686.776-1.577.776-2.68 0-1.052-.26-1.917-.782-2.59-.521-.671-1.322-1.01-2.406-1.01h-3.457v.003zm18.492 3.682h-6.046l-1.442 4.859h-1.49l5.338-17.297h1.295l5.265 17.297h-1.49l-1.43-4.86zm-5.668-1.248h5.302l-2.626-8.887h-.036l-2.64 8.887zm12.327-1.056v7.165h-1.442v-17.3h5.008c1.498 0 2.644.455 3.439 1.367.793.911 1.19 2.143 1.19 3.694 0 1.57-.397 2.806-1.19 3.712-.793.907-1.941 1.36-3.439 1.36h-3.566v.002zm0-1.247h3.566c1.083 0 1.885-.356 2.406-1.069.522-.712.781-1.623.781-2.732 0-1.125-.257-2.044-.775-2.757-.517-.712-1.321-1.068-2.412-1.068h-3.566v7.626zm21.555 9.934h-1.442v-1.524h-10.347v1.525h-1.442v-2.76h1.039c.505-.626.995-1.71 1.472-3.256.477-1.545.755-3.726.838-6.545l.267-6.261h7.966V25.85h1.649v2.76zm-8.429-12.56c-.09 2.306-.338 4.284-.745 5.933-.406 1.652-.912 2.94-1.514 3.867h7.585V11.048h-5.118l-.208 5.002zM73.729 51.954h-3.532v-14.59h-5.31v14.59h-3.543V34.657h12.385v17.297zm17.107-3.694h-4.573l-.902 3.694h-3.57l4.941-17.297h3.67l4.918 17.297h-3.556l-.928-3.694zm-3.912-2.696h3.251l-1.612-6.511h-.039l-1.6 6.51zm19.984.189v6.2h-3.544V34.658h6.173c1.786 0 3.186.503 4.198 1.509 1.013 1.006 1.519 2.352 1.519 4.04 0 1.694-.506 3.044-1.519 4.044-1.012 1.002-2.412 1.503-4.198 1.503h-2.629zm0-2.708h2.629c.719 0 1.263-.262 1.627-.785.365-.523.546-1.2.546-2.032 0-.847-.183-1.537-.546-2.066-.364-.532-.906-.797-1.627-.797h-2.629v5.68zm21.96-.535l.026.082h.038l2.438-7.935h3.709l-4.878 13.935c-.492 1.18-1.031 2.076-1.619 2.69-.588.614-1.446.921-2.574.921-.169 0-.362-.006-.577-.018l-.54-.03-.038-2.696c.068.024.183.038.35.042.165.004.306.006.425.006.533 0 .918-.136 1.156-.41.237-.274.431-.71.584-1.312l.165-.581h-.027l-5.132-12.545h3.785l2.709 7.85zm25.118 4.064c-.008 1.893-.514 3.306-1.512 4.235-.999.932-2.449 1.396-4.345 1.396-1.855 0-3.28-.533-4.275-1.597-.995-1.064-1.492-2.636-1.492-4.71v-5.17c0-2.05.509-3.617 1.53-4.697s2.432-1.622 4.237-1.622c1.93 0 3.376.469 4.339 1.409.96.937 1.472 2.378 1.53 4.317h-3.544c.042-1.092-.109-1.869-.451-2.328-.342-.458-.968-.69-1.874-.69-.772 0-1.337.288-1.696.861-.36.576-.539 1.483-.539 2.727v5.19c0 1.284.169 2.206.507 2.77.338.563.914.842 1.728.842.847 0 1.453-.22 1.822-.66.368-.44.531-1.197.489-2.275h3.546v.002z" fill="#fff"/></svg>