<svg width="13" height="13" viewBox="0 0 13 13" fill="none" xmlns="http://www.w3.org/2000/svg">
<path d="M0.962015 7.27911C0.922993 7.23855 0.892343 7.19071 0.871814 7.1383C0.851284 7.0859 0.841277 7.02996 0.842365 6.97369C0.844562 6.86004 0.891815 6.75192 0.973729 6.67312C1.05564 6.59431 1.16551 6.55127 1.27916 6.55347C1.3928 6.55566 1.50092 6.60292 1.57973 6.68483L6.1283 11.4134L6.1283 0.6974C6.1283 0.583736 6.17345 0.474727 6.25383 0.394354C6.3342 0.313981 6.44321 0.268828 6.55687 0.268828C6.67054 0.268828 6.77955 0.313981 6.85992 0.394354C6.94029 0.474727 6.98544 0.583736 6.98544 0.6974L6.98544 11.4123L11.5329 6.68426C11.5719 6.6437 11.6185 6.61122 11.6701 6.58868C11.7217 6.56614 11.7772 6.55398 11.8334 6.55289C11.8897 6.55181 11.9457 6.56181 11.9981 6.58234C12.0505 6.60287 12.0983 6.63352 12.1389 6.67254C12.1794 6.71156 12.2119 6.75819 12.2344 6.80977C12.257 6.86134 12.2691 6.91684 12.2702 6.97312C12.2713 7.02939 12.2613 7.08532 12.2408 7.13773C12.2203 7.19014 12.1896 7.23798 12.1506 7.27854L6.9683 12.666C6.91499 12.7214 6.85104 12.7654 6.7803 12.7955C6.70956 12.8256 6.63347 12.8411 6.55659 12.8411C6.47971 12.8411 6.40362 12.8256 6.33287 12.7955C6.26213 12.7654 6.19819 12.7214 6.14487 12.666L0.962015 7.27854V7.27911Z" fill="white"/>
</svg>
