<svg width="154" height="57" viewBox="0 0 154 57" fill="none" xmlns="http://www.w3.org/2000/svg">
<path d="M22.7003 20.7095C22.7003 20.7095 8.08015 29.1619 10.6836 40.3265C13.7261 53.3723 50.5352 56.9999 50.5352 56.9999C50.5352 56.9999 23.6406 50.4288 19.7143 37.2864C16.6718 27.4778 22.7003 20.7095 22.7003 20.7095Z" fill="white"/>
<path d="M4.78662 0C4.78662 0 22.0626 5.00184 27.1165 13.7319C30.8959 19.4198 25.2017 26.0896 25.2017 26.0896C25.2017 26.0896 36.9808 19.9108 34.8203 13.0438C32.6618 6.17886 14.3065 1.07843 4.78662 0Z" fill="white"/>
<path d="M26.9691 55.4992C12.6671 55.4992 1.03092 43.8718 1.03092 29.5806C1.03092 18.9673 7.45002 9.82474 16.6135 5.82287C16.231 5.61362 15.8484 5.41242 15.4658 5.21524C6.33453 9.53702 0 18.8325 0 29.5806C0 44.4392 12.0972 56.5293 26.9691 56.5293C29.8122 56.5293 32.5546 56.0867 35.1319 55.2678C34.4574 55.1089 33.7768 54.9419 33.0942 54.7668C31.127 55.2417 29.0772 55.4992 26.9691 55.4992Z" fill="white"/>
<path d="M26.9686 3.66399C41.2706 3.66399 52.9068 15.2913 52.9068 29.5826C52.9068 39.3569 47.4622 47.8797 39.4464 52.2941C39.8511 52.4671 40.2538 52.6321 40.6505 52.793C48.5958 48.099 53.9357 39.4535 53.9357 29.5806C53.9357 14.722 41.8384 2.63184 26.9666 2.63184C25.1524 2.63184 23.3805 2.81493 21.667 3.15898C22.3254 3.39237 22.9738 3.63381 23.6141 3.8833C24.7134 3.74045 25.831 3.66399 26.9686 3.66399Z" fill="white"/>
<path d="M72.9802 9.78853V27.0857H71.5385V11.048H66.0295L65.8221 17.6293C65.7154 21.1543 65.3892 23.611 64.8395 25.0013C64.2898 26.3916 63.2831 27.0857 61.8172 27.0857H61.3662V25.8503H61.7568C62.6931 25.8503 63.3435 25.289 63.7059 24.1643C64.0684 23.0396 64.2979 20.8626 64.3966 17.6313L64.6523 9.79054H72.9802V9.78853Z" fill="white"/>
<path d="M86.5651 20.8727C86.5651 23.0034 86.094 24.613 85.1536 25.7015C84.2133 26.79 82.9045 27.3352 81.2273 27.3352C79.5822 27.3352 78.3016 26.788 77.3855 25.6954C76.4693 24.6029 76.0103 22.9953 76.0103 20.8727V16.0258C76.0103 13.9031 76.4673 12.2915 77.3855 11.1909C78.3016 10.0904 79.5822 9.53906 81.2273 9.53906C82.8965 9.53906 84.2033 10.0924 85.1476 11.197C86.0919 12.3015 86.5651 13.9111 86.5651 16.0258V20.8727ZM85.1234 15.9916C85.1234 14.2572 84.7912 12.9635 84.1267 12.1124C83.4623 11.2613 82.4958 10.8348 81.2253 10.8348C79.995 10.8348 79.0607 11.2613 78.4225 12.1124C77.7822 12.9635 77.464 14.2572 77.464 15.9916V20.8747C77.464 22.6251 77.7842 23.9269 78.4225 24.784C79.0628 25.6391 79.997 26.0677 81.2253 26.0677C82.4958 26.0677 83.4623 25.6411 84.1267 24.79C84.7912 23.939 85.1234 22.6332 85.1234 20.8747V15.9916Z" fill="white"/>
<path d="M91.4002 9.78857L96.0414 24.9832H96.0897L100.731 9.78857H102.587V27.0858H101.158V19.4945L101.305 12.4022L101.269 12.3901L96.5408 27.0858H95.5884L90.8727 12.3901L90.8364 12.4022L90.9834 19.4945V27.0858H89.5659V9.78857H91.4002Z" fill="white"/>
<path d="M114.273 11.0481H107.274V17.2974H110.731C112.237 17.2974 113.385 17.732 114.176 18.5991C114.966 19.4663 115.362 20.6574 115.362 22.1684C115.362 23.6895 114.966 24.8887 114.17 25.7679C113.377 26.6471 112.229 27.0858 110.731 27.0858H105.82V9.78857H114.273V11.0481ZM107.274 18.5448V25.8504H110.731C111.823 25.8504 112.626 25.5083 113.143 24.8223C113.661 24.1362 113.919 23.2448 113.919 22.1423C113.919 21.09 113.659 20.2248 113.137 19.5528C112.616 18.8808 111.815 18.5428 110.731 18.5428H107.274V18.5448Z" fill="white"/>
<path d="M125.766 22.2268H119.72L118.278 27.0858H116.788L122.126 9.78857H123.421L128.686 27.0858H127.196L125.766 22.2268ZM120.098 20.9793H125.4L122.774 12.0923H122.738L120.098 20.9793Z" fill="white"/>
<path d="M132.425 19.923V27.0878H130.983V9.78857H135.991C137.489 9.78857 138.635 10.2433 139.43 11.1547C140.223 12.0662 140.62 13.2975 140.62 14.8488C140.62 16.4181 140.223 17.6555 139.43 18.5609C138.637 19.4683 137.489 19.921 135.991 19.921H132.425V19.923ZM132.425 18.6756H135.991C137.074 18.6756 137.876 18.3195 138.397 17.6072C138.919 16.895 139.178 15.9835 139.178 14.8749C139.178 13.7502 138.921 12.8307 138.403 12.1185C137.886 11.4062 137.082 11.0501 135.991 11.0501H132.425V18.6756Z" fill="white"/>
<path d="M153.98 28.6108H152.538V27.0858H142.191V28.6108H140.749V25.8504H141.788C142.293 25.2246 142.783 24.1402 143.26 22.595C143.737 21.0497 144.015 18.8687 144.098 16.0499L144.365 9.78857H152.331V25.8504H153.98V28.6108ZM145.551 16.0499C145.461 18.3557 145.213 20.3335 144.806 21.9833C144.4 23.6352 143.894 24.9228 143.292 25.8504H150.877V11.0481H145.759L145.551 16.0499Z" fill="white"/>
<path d="M73.7289 51.9538H70.1972V37.3648H64.8875V51.9538H61.3438V34.6567H73.7289V51.9538Z" fill="white"/>
<path d="M90.8357 48.2598H86.263L85.361 51.9538H81.791L86.7322 34.6567H90.4028L95.3198 51.9538H91.764L90.8357 48.2598ZM86.9235 45.5637H90.1753L88.5625 39.0529H88.5242L86.9235 45.5637Z" fill="white"/>
<path d="M106.908 45.7529V51.9539H103.364V34.6567H109.537C111.323 34.6567 112.723 35.1597 113.735 36.1657C114.748 37.1717 115.254 38.5178 115.254 40.2058C115.254 41.8999 114.748 43.25 113.735 44.25C112.723 45.2519 111.323 45.7529 109.537 45.7529H106.908ZM106.908 43.0448H109.537C110.256 43.0448 110.8 42.7832 111.164 42.2601C111.529 41.737 111.71 41.0609 111.71 40.228C111.71 39.3809 111.527 38.6908 111.164 38.1616C110.8 37.6305 110.258 37.3649 109.537 37.3649H106.908V43.0448Z" fill="white"/>
<path d="M128.868 42.5096L128.894 42.5921H128.932L131.37 34.6567H135.079L130.201 48.5919C129.709 49.7729 129.17 50.6682 128.582 51.2819C127.994 51.8956 127.136 52.2034 126.008 52.2034C125.839 52.2034 125.646 52.1974 125.431 52.1853C125.215 52.1732 125.034 52.1632 124.891 52.1551L124.853 49.459C124.921 49.4832 125.036 49.4973 125.203 49.5013C125.368 49.5053 125.509 49.5073 125.628 49.5073C126.161 49.5073 126.546 49.3705 126.784 49.0969C127.021 48.8232 127.215 48.3866 127.368 47.785L127.533 47.2036H127.506L122.374 34.6587H126.159L128.868 42.5096Z" fill="white"/>
<path d="M153.986 46.5737C153.978 48.467 153.472 49.8795 152.474 50.809C151.475 51.7406 150.025 52.2053 148.129 52.2053C146.274 52.2053 144.849 51.6722 143.854 50.6078C142.859 49.5435 142.362 47.9721 142.362 45.8977V40.7289C142.362 38.6786 142.871 37.1113 143.892 36.0309C144.913 34.9504 146.324 34.4092 148.129 34.4092C150.059 34.4092 151.505 34.878 152.468 35.8176C153.428 36.7552 153.94 38.1958 153.998 40.1353H150.454C150.496 39.0428 150.345 38.2662 150.003 37.8075C149.661 37.3487 149.035 37.1173 148.129 37.1173C147.357 37.1173 146.792 37.4051 146.433 37.9785C146.073 38.5539 145.894 39.4613 145.894 40.7047V45.8957C145.894 47.1794 146.063 48.1009 146.401 48.6642C146.739 49.2276 147.315 49.5072 148.129 49.5072C148.976 49.5072 149.582 49.2879 149.951 48.8473C150.319 48.4067 150.482 47.6502 150.44 46.5717H153.986V46.5737Z" fill="white"/>
</svg>
