<svg width="135" height="50" viewBox="0 0 135 50" fill="none" xmlns="http://www.w3.org/2000/svg">
<g clip-path="url(#clip0_3_145)">
<path d="M19.9004 18.1663C19.9004 18.1663 7.08399 25.5807 9.36626 35.3742C12.0333 46.8179 44.3011 50 44.3011 50C44.3011 50 20.7247 44.2358 17.2827 32.7074C14.6157 24.1035 19.9004 18.1663 19.9004 18.1663Z" fill="#234D9C"/>
<path d="M4.19653 0C4.19653 0 19.3411 4.38758 23.7715 12.0455C27.0846 17.0349 22.0929 22.8856 22.0929 22.8856C22.0929 22.8856 32.4187 17.4656 30.5247 11.4419C28.6326 5.42005 12.5419 0.945994 4.19653 0Z" fill="#234D9C"/>
<path d="M23.6417 48.6836C11.1042 48.6836 0.90373 38.4842 0.90373 25.948C0.90373 16.638 6.53086 8.61828 14.5638 5.10786C14.2285 4.92431 13.8931 4.74782 13.5577 4.57486C5.553 8.36589 0 16.5198 0 25.948C0 38.9819 10.6047 49.5872 23.6417 49.5872C26.134 49.5872 28.5381 49.1989 30.7974 48.4806C30.2061 48.3412 29.6095 48.1947 29.0112 48.0412C27.2867 48.4577 25.4898 48.6836 23.6417 48.6836Z" fill="#234D9C"/>
<path d="M23.6424 3.21402C36.1799 3.21402 46.3804 13.4135 46.3804 25.9496C46.3804 34.5236 41.6075 41.9998 34.5807 45.872C34.9355 46.0238 35.2885 46.1685 35.6362 46.3097C42.6013 42.1921 47.2823 34.6083 47.2823 25.9479C47.2823 12.914 36.6776 2.30862 23.6406 2.30862C22.0503 2.30862 20.497 2.46923 18.9949 2.77103C19.5721 2.97576 20.1404 3.18755 20.7017 3.4064C21.6655 3.28109 22.6451 3.21402 23.6424 3.21402Z" fill="#234D9C"/>
<path d="M63.9759 8.58615V23.7591H62.7121V9.69099H57.8828L57.701 15.464C57.6074 18.5562 57.3215 20.7111 56.8396 21.9307C56.3577 23.1502 55.4752 23.7591 54.1902 23.7591H53.7948V22.6755H54.1372C54.958 22.6755 55.5281 22.183 55.8458 21.1965C56.1636 20.2099 56.3648 18.3002 56.4513 15.4658L56.6754 8.58792H63.9759V8.58615Z" fill="#234D9C"/>
<path d="M75.8858 18.3091C75.8858 20.1781 75.4728 21.59 74.6485 22.5449C73.8242 23.4997 72.6769 23.978 71.2065 23.978C69.7645 23.978 68.6419 23.4979 67.8387 22.5396C67.0356 21.5812 66.6332 20.1711 66.6332 18.3091V14.0574C66.6332 12.1954 67.0339 10.7817 67.8387 9.8163C68.6419 8.8509 69.7645 8.36731 71.2065 8.36731C72.6698 8.36731 73.8154 8.85266 74.6432 9.8216C75.471 10.7905 75.8858 12.2025 75.8858 14.0574V18.3091ZM74.622 14.0274C74.622 12.506 74.3308 11.3712 73.7483 10.6246C73.1658 9.87808 72.3186 9.50391 71.2048 9.50391C70.1263 9.50391 69.3073 9.87808 68.7478 10.6246C68.1865 11.3712 67.9076 12.506 67.9076 14.0274V18.3108C67.9076 19.8463 68.1882 20.9882 68.7478 21.7401C69.3091 22.4901 70.1281 22.8661 71.2048 22.8661C72.3186 22.8661 73.1658 22.4919 73.7483 21.7454C74.3308 20.9988 74.622 19.8534 74.622 18.3108V14.0274Z" fill="#234D9C"/>
<path d="M80.123 8.58621L84.1916 21.9148H84.2339L88.3025 8.58621H89.9299V23.7592H88.6767V17.1002L88.8055 10.8788L88.7738 10.8682L84.6293 23.7592H83.7944L79.6606 10.8682L79.6288 10.8788L79.7576 17.1002V23.7592H78.515V8.58621H80.123Z" fill="#234D9C"/>
<path d="M100.175 9.69102H94.0395V15.1728H97.0702C98.3905 15.1728 99.3966 15.5541 100.09 16.3147C100.782 17.0754 101.13 18.1202 101.13 19.4457C101.13 20.78 100.782 21.8319 100.085 22.6031C99.3895 23.3744 98.3834 23.7591 97.0702 23.7591H92.7651V8.58618H100.175V9.69102ZM94.0395 16.2671V22.6755H97.0702C98.0269 22.6755 98.7312 22.3755 99.1848 21.7736C99.6384 21.1718 99.8644 20.3899 99.8644 19.4228C99.8644 18.4997 99.6367 17.7408 99.1795 17.1513C98.7223 16.5618 98.0198 16.2653 97.0702 16.2653H94.0395V16.2671Z" fill="#234D9C"/>
<path d="M110.249 19.4969H104.948L103.684 23.7592H102.378L107.057 8.58621H108.192L112.808 23.7592H111.502L110.249 19.4969ZM105.28 18.4027H109.927L107.626 10.607H107.594L105.28 18.4027Z" fill="#234D9C"/>
<path d="M116.087 17.476V23.7609H114.823V8.58618H119.213C120.526 8.58618 121.53 8.98505 122.227 9.78456C122.923 10.5841 123.271 11.6642 123.271 13.0249C123.271 14.4016 122.923 15.487 122.227 16.2812C121.532 17.0772 120.526 17.4743 119.213 17.4743H116.087V17.476ZM116.087 16.3818H119.213C120.162 16.3818 120.865 16.0694 121.322 15.4446C121.779 14.8199 122.007 14.0203 122.007 13.0479C122.007 12.0613 121.781 11.2547 121.327 10.63C120.874 10.0052 120.169 9.69278 119.213 9.69278H116.087V16.3818Z" fill="#234D9C"/>
<path d="M134.982 25.097H133.718V23.7592H124.647V25.097H123.383V22.6755H124.294C124.737 22.1266 125.166 21.1753 125.584 19.8199C126.003 18.4644 126.246 16.5513 126.319 14.0786L126.554 8.58621H133.536V22.6755H134.982V25.097ZM127.593 14.0786C127.514 16.1012 127.297 17.8361 126.94 19.2834C126.584 20.7323 126.141 21.8619 125.613 22.6755H132.262V9.69105H127.775L127.593 14.0786Z" fill="#234D9C"/>
<path d="M64.6324 45.5736H61.5364V32.7762H56.8818V45.5736H53.7753V30.4006H64.6324V45.5736Z" fill="#234D9C"/>
<path d="M79.6286 42.3332H75.6201L74.8293 45.5736H71.6998L76.0314 30.4006H79.2491L83.5595 45.5736H80.4423L79.6286 42.3332ZM76.1991 39.9682H79.0497L77.6358 34.2569H77.6023L76.1991 39.9682Z" fill="#234D9C"/>
<path d="M93.7167 40.1341V45.5735H90.6101V30.4006H96.0219C97.5875 30.4006 98.8143 30.8418 99.7021 31.7243C100.59 32.6067 101.033 33.7874 101.033 35.2682C101.033 36.7543 100.59 37.9385 99.7021 38.8157C98.8143 39.6946 97.5875 40.1341 96.0219 40.1341H93.7167ZM93.7167 37.7585H96.0219C96.652 37.7585 97.1286 37.5291 97.4481 37.0702C97.7676 36.6113 97.9264 36.0183 97.9264 35.2876C97.9264 34.5446 97.7658 33.9392 97.4481 33.4751C97.1286 33.0091 96.6538 32.7761 96.0219 32.7761H93.7167V37.7585Z" fill="#234D9C"/>
<path d="M112.968 37.289L112.991 37.3614H113.025L115.162 30.4006H118.413L114.137 42.6244C113.706 43.6604 113.233 44.4458 112.717 44.9841C112.202 45.5224 111.45 45.7924 110.462 45.7924C110.313 45.7924 110.144 45.7871 109.955 45.7765C109.766 45.7659 109.607 45.7571 109.482 45.75L109.448 43.385C109.508 43.4062 109.609 43.4186 109.756 43.4221C109.9 43.4256 110.024 43.4274 110.128 43.4274C110.596 43.4274 110.933 43.3074 111.141 43.0674C111.349 42.8273 111.519 42.4443 111.653 41.9166L111.798 41.4066H111.775L107.276 30.4023H110.594L112.968 37.289Z" fill="#234D9C"/>
<path d="M134.987 40.8542C134.98 42.515 134.537 43.7539 133.661 44.5693C132.786 45.3865 131.515 45.7942 129.852 45.7942C128.226 45.7942 126.977 45.3265 126.105 44.3928C125.233 43.4592 124.797 42.0808 124.797 40.2612V35.7271C124.797 33.9286 125.243 32.5538 126.138 31.606C127.033 30.6583 128.271 30.1835 129.852 30.1835C131.545 30.1835 132.812 30.5947 133.656 31.4189C134.498 32.2414 134.946 33.5051 134.997 35.2064H131.891C131.928 34.2481 131.795 33.5668 131.495 33.1644C131.195 32.762 130.646 32.5591 129.852 32.5591C129.176 32.5591 128.68 32.8115 128.366 33.3145C128.05 33.8192 127.893 34.6152 127.893 35.7059V40.2594C127.893 41.3854 128.041 42.1937 128.338 42.6879C128.634 43.1821 129.139 43.4274 129.852 43.4274C130.595 43.4274 131.127 43.235 131.45 42.8485C131.773 42.462 131.916 41.7984 131.878 40.8524H134.987V40.8542Z" fill="#234D9C"/>
</g>
<defs>
<clipPath id="clip0_3_145">
<rect width="135" height="50" fill="white"/>
</clipPath>
</defs>
</svg>
