<svg width="18" height="18" viewBox="0 0 18 18" fill="none" xmlns="http://www.w3.org/2000/svg">
<path d="M11.9763 12.7675L13.5163 11.2275C13.7237 11.0227 13.9861 10.8825 14.2717 10.8239C14.5573 10.7653 14.8537 10.7909 15.125 10.8975L17.0019 11.6469C17.2761 11.7582 17.5112 11.9482 17.6776 12.1928C17.8439 12.4375 17.9342 12.726 17.9369 13.0219V16.4594C17.9353 16.6607 17.893 16.8596 17.8125 17.0441C17.732 17.2286 17.615 17.3949 17.4686 17.533C17.3221 17.6711 17.1492 17.7781 16.9603 17.8476C16.7714 17.9172 16.5704 17.9477 16.3694 17.9375C3.21751 17.1194 0.563765 5.9819 0.0618901 1.7194C0.0385928 1.51008 0.0598789 1.2982 0.124348 1.0977C0.188818 0.897202 0.295009 0.712623 0.435936 0.556109C0.576864 0.399595 0.749333 0.274694 0.941998 0.189622C1.13466 0.10455 1.34316 0.0612356 1.55377 0.0625281H4.87439C5.17071 0.0634052 5.45999 0.152912 5.70502 0.319536C5.95006 0.48616 6.13964 0.72228 6.24939 0.997528L6.99876 2.8744C7.10894 3.14464 7.13705 3.44134 7.07958 3.72746C7.02211 4.01358 6.88161 4.27642 6.67564 4.48315L5.13564 6.02315C5.13564 6.02315 6.02251 12.025 11.9763 12.7675Z" fill="#C83138"/>
</svg>
