<svg width="55" height="55" viewBox="0 0 55 55" fill="none" xmlns="http://www.w3.org/2000/svg">
<path d="M41.762 28.7212L27.4087 26.3596L29.4678 24.8935L32.9147 25.3705L36.3574 24.8935L41.762 28.7212ZM32.9147 1.59672C33.599 1.59672 34.2766 1.73152 34.9087 1.99344C35.5409 2.25535 36.1153 2.63923 36.599 3.12316C37.0828 3.60709 37.4665 4.18159 37.7282 4.81384C37.9899 5.44609 38.1245 6.1237 38.1243 6.80797C38.1243 9.68687 36.2895 12.0192 32.9147 12.0192C32.2224 12.0318 31.5345 11.9063 30.8913 11.65C30.248 11.3938 29.6622 11.012 29.1682 10.5268C28.6742 10.0416 28.2817 9.46291 28.0138 8.8244C27.746 8.18589 27.608 7.5004 27.608 6.80797C27.608 6.11554 27.746 5.43005 28.0138 4.79154C28.2817 4.15303 28.6742 3.57429 29.1682 3.08914C29.6622 2.60398 30.248 2.22213 30.8913 1.96589C31.5345 1.70965 32.2224 1.58415 32.9147 1.59672ZM34.2115 39.2597V51.8538C34.2115 52.6085 34.5113 53.3322 35.0449 53.8658C35.5786 54.3994 36.3023 54.6992 37.0569 54.6992C37.8116 54.6992 38.5353 54.3994 39.0689 53.8658C39.6025 53.3322 39.9023 52.6085 39.9023 51.8538V39.2597C39.8841 38.5172 39.5763 37.8112 39.0447 37.2924C38.513 36.7737 37.7997 36.4834 37.0569 36.4834C36.3142 36.4834 35.6008 36.7737 35.0692 37.2924C34.5376 37.8112 34.2298 38.5172 34.2115 39.2597ZM51.6414 46.4501C51.6412 46.8876 51.4674 47.3072 51.1583 47.6169C50.8491 47.9265 50.4298 48.1009 49.9922 48.1018H41.2679V39.8552H45.0414V31.6138C45.0414 30.7063 45.7813 29.9655 46.6897 29.9655H49.9922C50.8997 29.9655 51.6414 30.7055 51.6414 31.6138V46.4501ZM32.8503 48.1009H15.9129C15.696 48.1009 15.4813 48.0582 15.281 47.9752C15.0807 47.8921 14.8988 47.7705 14.7455 47.6171C14.5923 47.4637 14.4708 47.2816 14.388 47.0812C14.3052 46.8808 14.2626 46.666 14.2629 46.4492V31.613C14.2633 31.1757 14.4374 30.7564 14.7468 30.4474C15.0561 30.1383 15.4756 29.9647 15.9129 29.9647H19.2137C20.1238 29.9647 20.8637 30.7046 20.8637 31.613V39.8544H32.8503V48.1009ZM23.9317 30.3076C23.8093 31.0521 23.9874 31.8148 24.427 32.4281C24.8666 33.0414 25.5317 33.4551 26.2761 33.5784L38.7018 35.6263C39.4463 35.7479 40.2087 35.5692 40.8215 35.1293C41.4344 34.6895 41.8478 34.0244 41.9708 33.2802C42.0318 32.9116 42.0195 32.5346 41.9346 32.1708C41.8497 31.8071 41.694 31.4636 41.4762 31.16C41.2585 30.8565 40.983 30.5988 40.6656 30.4018C40.3482 30.2048 39.9951 30.0724 39.6265 30.012L27.2008 27.9623C26.4564 27.8407 25.6941 28.0193 25.0813 28.4589C24.4684 28.8986 24.055 29.5635 23.9317 30.3076ZM9.91787 14.7099C5.86334 14.7099 2.56592 11.4125 2.56592 7.35539C2.56592 3.29828 5.86334 0 9.91787 0C13.9724 0 17.2741 3.29914 17.2741 7.35539C17.2741 11.4125 13.9724 14.7099 9.91787 14.7099ZM9.91787 12.8898C11.3854 12.8879 12.7924 12.3042 13.8302 11.2666C14.868 10.2289 15.4519 8.82209 15.454 7.35453C15.454 4.30461 12.9678 1.8193 9.91787 1.8193C6.86537 1.8193 4.38521 4.30461 4.38521 7.35453C4.38612 8.82184 4.96924 10.2288 6.00654 11.2666C7.04384 12.3044 8.45056 12.8882 9.91787 12.8898Z" fill="#4A8FE0"/>
<path d="M9.95562 8.32638C9.87139 8.36508 9.77871 8.38175 9.68626 8.37484C9.59382 8.36792 9.50465 8.33765 9.42711 8.28685C9.36107 8.24453 9.30483 8.1886 9.26214 8.1228C9.21946 8.057 9.19132 7.98284 9.17961 7.90529L9.17188 3.63075C9.17751 3.48786 9.23824 3.35269 9.34133 3.25358C9.44442 3.15448 9.58188 3.09912 9.72488 3.09912C9.86789 3.09912 10.0053 3.15448 10.1084 3.25358C10.2115 3.35269 10.2723 3.48786 10.2779 3.63075V6.94708L13.113 5.61161C13.1785 5.58032 13.2496 5.56228 13.3221 5.55853C13.3947 5.55477 13.4672 5.56537 13.5356 5.58973C13.6041 5.61408 13.667 5.6517 13.7209 5.70044C13.7747 5.74917 13.8184 5.80806 13.8495 5.87372C13.9118 6.00642 13.9191 6.15842 13.8696 6.29645C13.8202 6.43448 13.7181 6.5473 13.5856 6.61021L9.95562 8.32552V8.32638ZM32.9147 16.1647L39.6702 15.0647V19.8136L43.0055 22.3222C43.326 22.6453 43.1962 23.0131 43.1206 23.1171C43.03 23.2377 42.8954 23.3175 42.7461 23.3391C42.5968 23.3606 42.445 23.3222 42.324 23.2322L38.1148 20.0508C37.6955 19.7674 37.1818 19.6597 36.684 19.7508C36.1861 19.8418 35.7439 20.1244 35.4521 20.5379C35.1603 20.9514 35.0422 21.4629 35.1233 21.9624C35.2043 22.462 35.478 22.9098 35.8855 23.2099L43.0777 28.2613C43.412 28.4968 43.8872 28.6575 44.3607 28.6575C44.7646 28.6575 45.2398 28.4899 45.5939 28.239C46.3484 27.7027 46.626 26.7514 46.3699 25.8748L43.699 17.9823C42.9857 16.0212 41.187 13.7129 38.4852 13.7129H27.3434C24.6423 13.7129 22.8437 16.0212 22.1295 17.9823L19.4586 25.8748C19.2016 26.7514 19.4809 27.7036 20.2355 28.239C20.587 28.4899 21.0639 28.6575 21.4661 28.6575C21.9422 28.6575 22.4183 28.4976 22.7517 28.2613L29.9438 23.2099C30.3514 22.9098 30.625 22.462 30.7061 21.9624C30.7871 21.4629 30.6691 20.9514 30.3773 20.5379C30.0855 20.1244 29.6432 19.8418 29.1454 19.7508C28.6476 19.6597 28.1339 19.7674 27.7146 20.0508L23.5028 23.2322C23.382 23.3219 23.2305 23.3601 23.0816 23.3386C22.9327 23.317 22.7983 23.2374 22.7079 23.1171C22.6315 22.992 22.6011 22.8443 22.6218 22.6992C22.6425 22.5542 22.713 22.4209 22.8213 22.3222C22.8213 22.3222 25.0832 20.6232 26.1583 19.8136V15.0647L32.9147 16.1656V16.1647Z" fill="#4A8FE0"/>
</svg>
