<svg width="135" height="50" fill="none" xmlns="http://www.w3.org/2000/svg"><g clip-path="url(#clip0_3_145)" fill="#234D9C"><path d="M19.9 18.166S7.084 25.581 9.366 35.374C12.033 46.818 44.301 50 44.301 50s-23.576-5.764-27.018-17.293c-2.667-8.604 2.617-14.54 2.617-14.54z"/><path d="M4.197 0S19.34 4.388 23.772 12.046c3.313 4.989-1.68 10.84-1.68 10.84s10.327-5.42 8.433-11.444C28.633 5.42 12.542.946 4.197 0z"/><path d="M23.642 48.684c-12.538 0-22.738-10.2-22.738-22.736 0-9.31 5.627-17.33 13.66-20.84-.335-.184-.67-.36-1.006-.533C5.553 8.365 0 16.52 0 25.948c0 13.034 10.605 23.64 23.642 23.64a23.58 23.58 0 007.155-1.107 93.835 93.835 0 01-1.786-.44 22.841 22.841 0 01-5.37.643zm0-45.47c12.538 0 22.738 10.2 22.738 22.736 0 8.574-4.773 16.05-11.8 19.922.355.152.709.297 1.056.438 6.965-4.118 11.646-11.702 11.646-20.362 0-13.034-10.604-23.64-23.641-23.64-1.59 0-3.144.161-4.646.463.577.205 1.145.417 1.707.635a22.776 22.776 0 012.94-.192zm40.334 5.372V23.76h-1.264V9.691h-4.83l-.181 5.773c-.094 3.092-.38 5.247-.861 6.467-.482 1.22-1.365 1.828-2.65 1.828h-.395v-1.084h.342c.821 0 1.391-.492 1.709-1.479.318-.986.519-2.896.605-5.73l.224-6.878h7.3v-.002zm11.91 9.724c0 1.868-.413 3.28-1.237 4.235-.825.955-1.972 1.433-3.442 1.433-1.442 0-2.565-.48-3.368-1.438-.803-.959-1.206-2.369-1.206-4.23v-4.253c0-1.862.4-3.275 1.206-4.24.803-.966 1.925-1.45 3.368-1.45 1.463 0 2.608.486 3.436 1.455.828.969 1.243 2.38 1.243 4.235v4.252zm-1.264-4.283c0-1.521-.291-2.656-.874-3.402-.582-.747-1.43-1.121-2.543-1.121-1.079 0-1.898.374-2.457 1.12-.562.747-.84 1.882-.84 3.403v4.284c0 1.535.28 2.677.84 3.43.561.75 1.38 1.125 2.457 1.125 1.114 0 1.96-.374 2.543-1.12.583-.747.874-1.893.874-3.435v-4.284zm5.501-5.441l4.069 13.329h.042l4.069-13.329h1.627V23.76h-1.253V17.1l.128-6.221-.031-.01-4.145 12.89h-.835l-4.133-12.89-.032.01.129 6.221v6.66h-1.243V8.585h1.608zm20.052 1.105H94.04v5.482h3.03c1.32 0 2.327.381 3.02 1.142.692.76 1.04 1.805 1.04 3.13 0 1.335-.348 2.387-1.045 3.158-.695.771-1.702 1.156-3.015 1.156h-4.305V8.586h7.41v1.105zm-6.135 6.576v6.409h3.03c.957 0 1.661-.3 2.115-.902.453-.602.68-1.384.68-2.351 0-.923-.228-1.682-.685-2.272-.458-.59-1.16-.886-2.11-.886h-3.03v.002zm16.209 3.23h-5.301l-1.264 4.262h-1.306l4.679-15.173h1.135l4.616 15.173h-1.306l-1.253-4.262zm-4.969-1.094h4.647l-2.301-7.796h-.032l-2.314 7.796zm10.807-.927v6.285h-1.264V8.586h4.39c1.313 0 2.317.399 3.014 1.199.696.8 1.044 1.88 1.044 3.24 0 1.377-.348 2.462-1.044 3.256-.695.796-1.701 1.193-3.014 1.193h-3.126v.002zm0-1.094h3.126c.949 0 1.652-.313 2.109-.937.457-.625.685-1.425.685-2.397 0-.987-.226-1.793-.68-2.418-.453-.625-1.158-.937-2.114-.937h-3.126v6.689zm18.895 8.715h-1.264v-1.338h-9.071v1.338h-1.264v-2.422h.911c.443-.548.872-1.5 1.29-2.855.419-1.356.662-3.269.735-5.741l.235-5.493h6.982v14.09h1.446v2.421zm-7.389-11.018c-.079 2.022-.296 3.757-.653 5.204-.356 1.45-.799 2.579-1.327 3.392h6.649V9.691h-4.487l-.182 4.388zM64.632 45.574h-3.096V32.776h-4.654v12.798h-3.107V30.4h10.857v15.173zm14.997-3.241H75.62l-.79 3.24H71.7l4.331-15.172h3.218l4.31 15.173h-3.117l-.813-3.24zm-3.43-2.365h2.85l-1.413-5.711h-.034L76.2 39.968zm17.518.166v5.44H90.61V30.4h5.412c1.566 0 2.792.44 3.68 1.323.888.883 1.331 2.063 1.331 3.544 0 1.486-.443 2.67-1.33 3.548-.889.879-2.115 1.318-3.681 1.318h-2.305zm0-2.376h2.305c.63 0 1.107-.229 1.426-.688.32-.459.478-1.052.478-1.782 0-.743-.16-1.349-.478-1.813-.32-.466-.794-.699-1.426-.699h-2.305v4.982zm19.251-.469l.023.072h.034l2.137-6.96h3.251l-4.276 12.223c-.431 1.036-.904 1.822-1.42 2.36-.515.538-1.267.808-2.255.808-.149 0-.318-.005-.507-.016l-.473-.026-.034-2.365c.06.021.161.034.308.037.144.004.268.005.372.005.468 0 .805-.12 1.013-.36.208-.24.378-.623.512-1.15l.145-.51h-.023l-4.499-11.005h3.318l2.374 6.887zm22.019 3.565c-.007 1.661-.45 2.9-1.326 3.715-.875.817-2.146 1.225-3.809 1.225-1.626 0-2.875-.467-3.747-1.401-.872-.934-1.308-2.312-1.308-4.132v-4.534c0-1.798.446-3.173 1.341-4.121.895-.948 2.133-1.423 3.714-1.423 1.693 0 2.96.412 3.804 1.236.842.822 1.29 2.086 1.341 3.787h-3.106c.037-.958-.096-1.64-.396-2.042-.3-.402-.849-.605-1.643-.605-.676 0-1.172.253-1.486.756-.316.504-.473 1.3-.473 2.39v4.554c0 1.126.148 1.935.445 2.429.296.494.801.74 1.514.74.743 0 1.275-.193 1.598-.58.323-.386.466-1.05.428-1.996h3.109v.002z"/></g><defs><clipPath id="clip0_3_145"><path fill="#fff" d="M0 0h135v50H0z"/></clipPath></defs></svg>