<svg width="55" height="55" fill="none" xmlns="http://www.w3.org/2000/svg"><path d="M41.762 28.721L27.409 26.36l2.059-1.466 3.447.477 3.442-.477 5.405 3.827zM32.915 1.597a5.209 5.209 0 015.21 5.211c0 2.879-1.836 5.211-5.21 5.211a5.21 5.21 0 01-5.307-5.211 5.214 5.214 0 015.307-5.211zm1.297 37.663v12.594a2.845 2.845 0 105.69 0V39.26a2.846 2.846 0 00-5.69 0zm17.43 7.19a1.653 1.653 0 01-1.65 1.652h-8.724v-8.247h3.773v-8.241c0-.908.74-1.649 1.649-1.649h3.302c.908 0 1.65.74 1.65 1.649V46.45zM32.85 48.1H15.913a1.65 1.65 0 01-1.65-1.65V31.612a1.65 1.65 0 011.65-1.648h3.3c.91 0 1.65.74 1.65 1.648v8.241H32.85V48.1zm-8.918-17.792a2.847 2.847 0 002.344 3.27l12.426 2.048a2.848 2.848 0 002.774-4.466 2.842 2.842 0 00-1.85-1.148l-12.425-2.05a2.848 2.848 0 00-3.27 2.346zM9.918 14.71c-4.055 0-7.352-3.298-7.352-7.355S5.863 0 9.918 0c4.054 0 7.356 3.3 7.356 7.355 0 4.057-3.302 7.355-7.356 7.355zm0-1.82a5.544 5.544 0 005.536-5.535 5.545 5.545 0 00-5.536-5.536 5.54 5.54 0 00-5.533 5.536 5.539 5.539 0 005.533 5.535z" fill="#4A8FE0"/><path d="M9.956 8.326a.547.547 0 01-.529-.04.551.551 0 01-.247-.38L9.172 3.63a.553.553 0 011.106 0v3.316l2.835-1.335a.551.551 0 11.473.998l-3.63 1.716zm22.959 7.839l6.755-1.1v4.749l3.335 2.508a.634.634 0 01.116.795.57.57 0 01-.797.115l-4.21-3.181a1.934 1.934 0 00-2.228 3.159l7.192 5.051c.334.236.81.396 1.283.396.404 0 .879-.167 1.233-.418.754-.536 1.032-1.488.776-2.364l-2.671-7.893c-.713-1.96-2.512-4.27-5.214-4.27H27.343c-2.7 0-4.5 2.31-5.213 4.27l-2.671 7.893c-.257.876.022 1.829.776 2.364.352.25.829.418 1.231.418a2.3 2.3 0 001.286-.396l7.192-5.051a1.934 1.934 0 00-2.23-3.16l-4.211 3.182a.57.57 0 01-.795-.115.63.63 0 01.113-.795l3.337-2.508v-4.75l6.757 1.102v-.001z" fill="#4A8FE0"/></svg>